<?xml version="1.0" encoding="UTF-8" standalone="no"?>
<!-- Created with Inkscape (http://www.inkscape.org/) -->

<svg
   xmlns:dc="http://purl.org/dc/elements/1.1/"
   xmlns:cc="http://creativecommons.org/ns#"
   xmlns:rdf="http://www.w3.org/1999/02/22-rdf-syntax-ns#"
   xmlns:svg="http://www.w3.org/2000/svg"
   xmlns="http://www.w3.org/2000/svg"
   xmlns:sodipodi="http://sodipodi.sourceforge.net/DTD/sodipodi-0.dtd"
   xmlns:inkscape="http://www.inkscape.org/namespaces/inkscape"
   version="1.1"
   id="svg2"
   width="1280"
   height="1280"
   viewBox="0 0 1280 1280"
   sodipodi:docname="santa_pig.svg"
   inkscape:version="0.92.5 (2060ec1f9f, 2020-04-08)"
   inkscape:export-filename="/home/user/Documents/2d/santa_pig.png"
   inkscape:export-xdpi="76.800003"
   inkscape:export-ydpi="76.800003">
  <metadata
     id="metadata8">
    <rdf:RDF>
      <cc:Work
         rdf:about="">
        <dc:format>image/svg+xml</dc:format>
        <dc:type
           rdf:resource="http://purl.org/dc/dcmitype/StillImage" />
        <dc:title></dc:title>
      </cc:Work>
    </rdf:RDF>
  </metadata>
  <defs
     id="defs6" />
  <sodipodi:namedview
     pagecolor="#ffffff"
     bordercolor="#666666"
     borderopacity="1"
     objecttolerance="10"
     gridtolerance="10"
     guidetolerance="10"
     inkscape:pageopacity="0"
     inkscape:pageshadow="2"
     inkscape:window-width="2709"
     inkscape:window-height="1724"
     id="namedview4"
     showgrid="false"
     fit-margin-left="20"
     fit-margin-top="20"
     fit-margin-right="20"
     fit-margin-bottom="20"
     inkscape:zoom="0.69770879"
     inkscape:cx="-97.672052"
     inkscape:cy="494.47341"
     inkscape:window-x="1124"
     inkscape:window-y="0"
     inkscape:window-maximized="0"
     inkscape:current-layer="svg2" />
  <g
     id="g958"
     transform="translate(156.05831,2.2219247)">
    <path
       sodipodi:nodetypes="cscsscc"
       inkscape:connector-curvature="0"
       id="path831"
       d="m 599.33195,510.93089 c 0,0 142.3925,-102.8672 185.97175,-123.1366 43.57918,-20.2694 101.85368,-40.5388 120.09608,-27.3637 18.2425,13.1751 29.3907,55.7409 33.9513,103.3739 4.5606,47.6331 6.5876,116.5491 -9.1212,156.5811 -15.7088,40.0321 -66.8891,74.4901 -66.8891,74.4901 z"
       style="fill:#f5abba;fill-opacity:1;stroke:none;stroke-width:1px;stroke-linecap:butt;stroke-linejoin:miter;stroke-opacity:1" />
    <path
       sodipodi:nodetypes="csccscc"
       inkscape:connector-curvature="0"
       id="path833"
       d="m 109.82604,687.27459 c 0,0 -66.889007,-31.4175 -82.091047,-88.6786 -15.20205,-57.261 9.62797,-175.837 17.22899,-202.6939 3.0404,-15.2021 18.74919,-49.1533 59.794707,-33.4445 41.04553,15.7087 101.34698,33.4445 131.24434,55.7408 29.89736,22.2963 60.80819,55.7408 60.80819,55.7408 z"
       style="fill:#f5abba;fill-opacity:1;stroke:#f5abba;stroke-width:1px;stroke-linecap:butt;stroke-linejoin:miter;stroke-opacity:1" />
    <path
       inkscape:connector-curvature="0"
       id="path851"
       d="m 309.98632,381.20679 c 0,0 15.20205,-102.86723 66.88901,-187.99869 51.68696,-85.13146 88.17187,-163.168626 154.04741,-173.810066 65.87553,-10.6414297 89.18534,1.52021 108.948,27.87042 19.76266,26.35022 40.53879,93.745956 40.53879,93.745956 l -18.74919,8.10776 c 0,0 -38.51185,-54.727366 -59.28798,-45.09941 -20.77613,9.62796 -0.50674,82.09105 13.68184,123.13658 14.18858,41.04553 73.47656,156.07435 73.47656,156.07435 z"
       style="fill:#f84946;fill-opacity:1;stroke:none;stroke-width:1px;stroke-linecap:butt;stroke-linejoin:miter;stroke-opacity:1" />
    <path
       inkscape:connector-curvature="0"
       id="path835"
       d="m 105.77216,653.32339 c 0,0 -27.363677,-14.1886 -29.390617,-38.5119 -2.02694,-24.3232 1.5202,-114.522 3.54714,-134.2847 2.02694,-19.7627 8.10776,-54.2206 36.484917,-43.5792 28.37715,10.6414 109.96147,53.2072 109.96147,53.2072 l -118.06923,161.6484 z"
       style="fill:#ee91a2;fill-opacity:1;stroke:none;stroke-width:1px;stroke-linecap:butt;stroke-linejoin:miter;stroke-opacity:1" />
    <path
       inkscape:connector-curvature="0"
       id="path837"
       d="m 727.02914,494.71539 c 0,0 91.21224,-48.1398 114.52204,-53.2072 23.3099,-5.0673 45.6062,-10.1347 46.1129,26.857 0.5068,36.9916 1.5202,96.2796 0,125.6702 -1.5202,29.3906 -17.7357,73.4766 -17.7357,73.4766 z"
       style="fill:#ee91a2;fill-opacity:1;stroke:none;stroke-width:1px;stroke-linecap:butt;stroke-linejoin:miter;stroke-opacity:1" />
    <path
       sodipodi:nodetypes="zzzzzz"
       inkscape:connector-curvature="0"
       id="path817"
       d="M 213.64147,483.52969 C 108.16543,586.19799 15.750573,718.52039 20.151003,910.64199 24.551433,1102.7636 236.57368,1201.5944 481.6616,1197.2946 c 245.08791,-4.2998 458.64408,-73.0964 465.81038,-262.28701 7.1663,-189.1907 -80.2627,-375.5149 -186.32415,-450.0445 -106.06144,-74.5296 -442.03033,-104.1016 -547.50636,-1.4334 z"
       style="fill:#f5abba;fill-opacity:1;stroke:none;stroke-width:1px;stroke-linecap:butt;stroke-linejoin:miter;stroke-opacity:1" />
    <path
       inkscape:connector-curvature="0"
       id="path849"
       d="m 358.63287,337.62759 c 0,0 -15.20204,-15.2021 -30.40409,-15.2021 -15.20205,0 -23.3098,25.3368 -23.3098,25.3368 0,0 -16.72226,-7.0943 -28.37716,-3.5472 -11.6549,3.5472 -16.21552,11.6549 -16.21552,11.6549 0,0 -14.18857,-6.0808 -20.26939,4.5606 -6.08082,10.6415 2.02694,14.1886 2.02694,14.1886 0,0 -15.20205,6.5876 -14.69531,14.1886 0.50673,7.601 16.21551,19.7626 16.21551,19.7626 0,0 -5.06735,18.2425 5.06735,26.857 10.1347,8.6145 21.7896,5.5741 21.7896,5.5741 0,0 5.06735,10.1347 17.22899,8.6145 12.16164,-1.5202 13.17511,-11.1482 13.17511,-11.1482 0,0 11.6549,4.5606 18.74919,3.0404 7.09429,-1.5202 12.16163,-10.6414 12.16163,-10.6414 0,0 4.56062,8.1077 11.65491,6.5875 7.09429,-1.5202 7.09429,-11.1481 7.09429,-11.1481 0,0 5.57408,17.7357 18.74919,16.7222 13.1751,-1.0135 24.83001,-15.202 24.83001,-15.202 0,0 7.60102,4.0538 10.13469,5.5741 2.53368,1.5202 8.6145,-0.5068 8.6145,-0.5068 0,0 5.57408,13.6819 27.36368,16.2155 21.7896,2.5337 28.37716,-11.6549 28.37716,-11.6549 0,0 10.13469,5.0674 24.32327,2.5337 14.18858,-2.5337 17.22899,-12.1616 17.22899,-12.1616 0,0 11.14816,6.0808 15.70878,6.0808 4.56061,0 18.74919,-7.0943 18.74919,-7.0943 0,0 6.58755,15.7088 18.24246,17.7357 11.6549,2.027 27.36368,-8.6145 27.36368,-8.6145 0,0 19.76266,15.7088 46.11287,17.7357 26.35022,2.027 39.01859,-12.1616 39.01859,-12.1616 0,0 20.2694,24.3233 35.97818,8.1078 15.70878,-16.2155 5.06735,-47.1264 5.06735,-47.1264 0,0 2.53367,-3.5471 4.05388,-9.6279 1.5202,-6.0809 -5.57409,-9.628 -5.57409,-9.628 0,0 13.17511,-5.5741 3.04041,-19.2559 -10.1347,-13.6819 -22.29633,-12.1617 -22.29633,-12.1617 0,0 -13.68184,-11.1481 -23.81654,-9.6279 -10.1347,1.5202 -13.68184,9.1212 -13.68184,9.1212 l -6.08082,-4.0539 -6.58756,3.5472 c 0,0 -7.09429,-16.2156 -17.22898,-16.7223 -10.1347,-0.5067 -18.24246,15.2021 -18.24246,15.2021 0,0 -14.18858,-8.1078 -22.80307,-12.1617 -8.61449,-4.0539 -19.76266,0 -19.76266,0 0,0 -8.10776,-11.6549 -18.24246,-11.6549 -10.13469,0 -15.20204,10.1347 -15.20204,10.1347 0,0 -10.1347,-7.0943 -24.32328,-6.5875 -14.18858,0.5067 -22.29633,8.1077 -22.29633,8.1077 0,0 -18.74919,-12.1616 -32.43104,-14.1886 -13.68184,-2.0269 -34.45797,4.5607 -34.45797,4.5607 0,0 -20.2694,-22.80311 -38.00512,-16.72229 -17.73572,6.08079 -23.81654,26.85699 -23.81654,26.85699 z"
       style="fill:#ffffff;stroke:none;stroke-width:1px;stroke-linecap:butt;stroke-linejoin:miter;stroke-opacity:1" />
    <path
       sodipodi:nodetypes="zzzzzz"
       inkscape:connector-curvature="0"
       id="path823"
       d="m 302.50375,801.71409 c 70.75526,-2.4126 220.72246,11.4661 288.08581,34.3983 67.36335,22.9322 83.12924,156.2257 27.232,222.15571 -55.89725,65.9301 -131.86018,91.7288 -212.12289,84.5625 -80.26271,-7.1663 -177.72457,-81.6959 -196.35699,-164.82521 -18.63242,-83.1292 22.40682,-173.8787 93.16207,-176.2913 z"
       style="fill:#ed5973;fill-opacity:1;stroke:none;stroke-width:1px;stroke-linecap:butt;stroke-linejoin:miter;stroke-opacity:1" />
    <ellipse
       transform="rotate(8.2964946)"
       ry="55.487473"
       rx="42.565731"
       cy="896.87225"
       cx="658.10364"
       id="path825"
       style="fill:#6e1e17;fill-opacity:1;stroke:none;stroke-width:3.78134465;stroke-linecap:round;stroke-miterlimit:4;stroke-dasharray:none;stroke-opacity:1" />
    <ellipse
       ry="59.480404"
       rx="60"
       cy="710.70184"
       cx="279.37451"
       id="path819"
       style="fill:#000000;fill-opacity:1;stroke:none;stroke-width:4.01743317;stroke-linecap:round;stroke-miterlimit:4;stroke-dasharray:none;stroke-opacity:1" />
    <ellipse
       style="fill:#000000;fill-opacity:1;stroke:none;stroke-width:4.01743317;stroke-linecap:round;stroke-miterlimit:4;stroke-dasharray:none;stroke-opacity:1"
       id="ellipse821"
       cx="677.82153"
       cy="766.59906"
       rx="60"
       ry="59.480404" />
    <path
       sodipodi:nodetypes="csc"
       inkscape:connector-curvature="0"
       id="path839"
       d="m 206.10567,538.80129 c 0,0 25.33675,-39.5253 72.96983,-42.5657 47.63308,-3.0404 78.5439,39.0185 78.5439,39.0185"
       style="fill:none;stroke:#000000;stroke-width:35;stroke-linecap:round;stroke-linejoin:miter;stroke-miterlimit:4;stroke-dasharray:none;stroke-opacity:1" />
    <path
       sodipodi:nodetypes="ccc"
       inkscape:connector-curvature="0"
       id="path841"
       d="m 630.74951,632.04059 c 0,0 15.70878,23.8165 56.24758,40.5388 47.12634,15.202 83.61125,8.1077 83.61125,8.1077"
       style="fill:none;stroke:#000000;stroke-width:35;stroke-linecap:round;stroke-linejoin:miter;stroke-miterlimit:4;stroke-dasharray:none;stroke-opacity:1" />
    <ellipse
       style="fill:#6e1e17;fill-opacity:1;stroke:none;stroke-width:3.78134465;stroke-linecap:round;stroke-miterlimit:4;stroke-dasharray:none;stroke-opacity:1"
       id="ellipse827"
       cx="458.57599"
       cy="891.14532"
       rx="42.565731"
       ry="55.487473"
       transform="rotate(8.2964946)" />
    <path
       sodipodi:nodetypes="ssssss"
       inkscape:connector-curvature="0"
       id="path845"
       d="m 177.27243,996.63775 c 20.78231,-14.33256 79.43652,-59.11046 84.74166,3.2248 4.29979,50.52265 -19.7784,123.49085 -66.2884,162.31715 -36.05955,30.1023 -118.960827,35.1149 -138.668167,25.0821 -19.70738,-10.0329 -34.57744,-34.9358 -1.61242,-75.4255 32.96506,-40.4896 100.943607,-100.796 121.827327,-115.19855 z"
       style="fill:#787974;fill-opacity:1;stroke:none;stroke-width:1px;stroke-linecap:butt;stroke-linejoin:miter;stroke-opacity:1" />
    <path
       sodipodi:nodetypes="zzzzzz"
       inkscape:connector-curvature="0"
       id="path843"
       d="m 116.14659,1258.3903 c 65.47408,7.8291 143.63998,-12.2533 181.21175,-74.4944 37.57176,-62.241 52.72152,-105.3648 41.21503,-128.5113 -11.50649,-23.1465 -81.08376,-10.2576 -113.00806,-3.1634 -31.9243,7.0943 -94.02319,29.3521 -171.091957,73.4872 -77.06876,44.1351 -3.80084,124.8529 61.673237,132.6819 z"
       style="fill:#4c504f;fill-opacity:1;stroke:none;stroke-width:1px;stroke-linecap:butt;stroke-linejoin:miter;stroke-opacity:1" />
    <path
       inkscape:connector-curvature="0"
       id="path939"
       d="m 702.33456,125.40454 c 0,0 13.17511,-2.78704 17.48236,9.3746 4.30724,12.16164 2.02693,22.29634 2.02693,22.29634 0,0 9.62797,4.30724 4.30725,16.21551 -5.32071,11.90827 -14.69531,11.6549 -14.69531,11.6549 0,0 3.29378,12.16164 -7.60102,15.45542 -10.8948,3.29378 -16.46889,-5.06735 -16.46889,-5.06735 0,0 -3.04041,11.90827 -10.8948,6.84092 -7.85439,-5.06735 -7.85439,-7.09429 -7.85439,-7.09429 0,0 -4.30725,0.25337 -11.14817,-3.29377 -6.84092,-3.54715 -4.56061,-8.86787 -4.56061,-8.86787 0,0 -10.64143,-2.2803 -11.90827,-9.88133 -1.26684,-7.60102 1.01347,-11.6549 1.01347,-11.6549 0,0 -2.78704,-10.8948 0.25337,-17.22898 3.04041,-6.33419 7.60102,-5.82746 7.60102,-5.82746 0,0 3.29378,-14.94868 14.94868,-18.74919 11.6549,-3.80051 18.74919,-5.06735 24.57664,-3.54714 5.82745,1.5202 12.92174,9.37459 12.92174,9.37459 z"
       style="fill:#ffffff;fill-opacity:1;stroke:none;stroke-width:1px;stroke-linecap:butt;stroke-linejoin:miter;stroke-opacity:1" />
  </g>
</svg>
